<svg width="49" height="49" viewBox="0 0 49 49" fill="none" xmlns="http://www.w3.org/2000/svg">
<path d="M44.5 24.5H4.5" stroke="#1F2937" stroke-linecap="round" stroke-linejoin="round"/>
<path d="M11.4 10.72L4.5 24.5V36.5C4.5 37.5609 4.92143 38.5783 5.67157 39.3284C6.42172 40.0786 7.43913 40.5 8.5 40.5H40.5C41.5609 40.5 42.5783 40.0786 43.3284 39.3284C44.0786 38.5783 44.5 37.5609 44.5 36.5V24.5L37.6 10.72C37.2688 10.0536 36.7584 9.49274 36.1259 9.10056C35.4935 8.70838 34.7642 8.50039 34.02 8.5H14.98C14.2358 8.50039 13.5065 8.70838 12.8741 9.10056C12.2417 9.49274 11.7312 10.0536 11.4 10.72Z" stroke="#1F2937" stroke-linecap="round" stroke-linejoin="round"/>
<path d="M12.5 32.5H12.52" stroke="#1F2937" stroke-linecap="round" stroke-linejoin="round"/>
<path d="M20.5 32.5H20.52" stroke="#1F2937" stroke-linecap="round" stroke-linejoin="round"/>
</svg>
