<svg width="12" height="12" viewBox="0 0 16 12" fill="none" xmlns="http://www.w3.org/2000/svg">
<path d="M14.71 1.20986C14.617 1.11613 14.5064 1.04174 14.3846 0.990969C14.2627 0.940201 14.132 0.914062 14 0.914062C13.868 0.914062 13.7373 0.940201 13.6154 0.990969C13.4936 1.04174 13.383 1.11613 13.29 1.20986L5.84001 8.66986L2.71001 5.52986C2.61349 5.43662 2.49955 5.36331 2.37469 5.3141C2.24984 5.2649 2.11651 5.24077 1.98233 5.24309C1.84815 5.24541 1.71574 5.27414 1.59266 5.32763C1.46959 5.38113 1.35825 5.45834 1.26501 5.55486C1.17177 5.65138 1.09846 5.76532 1.04925 5.89018C1.00005 6.01503 0.97592 6.14836 0.978241 6.28254C0.980563 6.41672 1.00929 6.54913 1.06278 6.67221C1.11628 6.79529 1.19349 6.90662 1.29001 6.99986L5.13001 10.8399C5.22297 10.9336 5.33358 11.008 5.45543 11.0588C5.57729 11.1095 5.708 11.1357 5.84001 11.1357C5.97202 11.1357 6.10273 11.1095 6.22459 11.0588C6.34645 11.008 6.45705 10.9336 6.55001 10.8399L14.71 2.67986C14.8115 2.58622 14.8925 2.47257 14.9479 2.34607C15.0033 2.21957 15.0319 2.08296 15.0319 1.94486C15.0319 1.80676 15.0033 1.67015 14.9479 1.54365C14.8925 1.41715 14.8115 1.3035 14.71 1.20986Z" fill="white"/>
</svg>
