<svg width="12" height="12" viewBox="0 0 12 12" fill="none" xmlns="http://www.w3.org/2000/svg">
<path fill-rule="evenodd" clip-rule="evenodd" d="M3.77479 7.96683L10.3748 1.2446C11.0415 0.566826 12.0526 1.35572 11.2192 2.2446C11.2192 2.2446 4.8859 10.2002 4.55257 10.6557C4.45292 10.8165 4.31387 10.9492 4.14859 11.0412C3.98332 11.1332 3.79729 11.1815 3.60812 11.1815C3.41896 11.1815 3.23293 11.1332 3.06765 11.0412C2.90237 10.9492 2.76333 10.8165 2.66368 10.6557L0.585899 7.10016C0.480309 6.90724 0.447141 6.68293 0.492376 6.46771C0.537611 6.25248 0.65827 6.06051 0.83259 5.92641C1.00691 5.79232 1.22341 5.72494 1.44304 5.73643C1.66267 5.74791 1.87096 5.83751 2.03034 5.98905L3.77479 7.96683Z" fill="white"/>
</svg>
