<svg width="16" height="16" viewBox="0 0 23 16" fill="none" xmlns="http://www.w3.org/2000/svg">
<rect x="0.5" y="0.5" width="22" height="15" rx="2" fill="white" stroke="#f3f4f6"/>
<path fill-rule="evenodd" clip-rule="evenodd" d="M7.02517 10.8388H5.63182L4.58697 6.79488C4.53738 6.60886 4.43208 6.4444 4.27718 6.36689C3.89063 6.17211 3.46468 6.0171 3 5.93891V5.78322H5.24458C5.55437 5.78322 5.78671 6.0171 5.82543 6.28871L6.36756 9.20572L7.76023 5.78322H9.11486L7.02517 10.8388ZM9.88932 10.8388H8.57341L9.65698 5.78322H10.9729L9.88932 10.8388ZM12.6754 7.18377C12.7141 6.91148 12.9464 6.75579 13.2175 6.75579C13.6434 6.7167 14.1074 6.79488 14.4947 6.98899L14.727 5.9005C14.3398 5.74481 13.9138 5.66663 13.5273 5.66663C12.2501 5.66663 11.3207 6.3669 11.3207 7.33879C11.3207 8.07815 11.979 8.46636 12.4437 8.70024C12.9464 8.93344 13.14 9.08913 13.1013 9.32233C13.1013 9.67212 12.7141 9.82782 12.3275 9.82782C11.8629 9.82782 11.3982 9.71122 10.9729 9.51643L10.7406 10.6056C11.2052 10.7997 11.708 10.8779 12.1726 10.8779C13.6047 10.9163 14.4947 10.2167 14.4947 9.16664C14.4947 7.84427 12.6754 7.76677 12.6754 7.18377ZM19.1 10.8388L18.0552 5.78322H16.9329C16.7005 5.78322 16.4682 5.93891 16.3907 6.17211L14.4559 10.8388H15.8106L16.081 10.1001H17.7454L17.9003 10.8388H19.1ZM17.1265 7.14468L17.513 9.05004H16.4294L17.1265 7.14468Z" fill="#172B85"/>
</svg>
