<svg width="16" height="16" viewBox="0 0 16 16" fill="none" xmlns="http://www.w3.org/2000/svg">
<path d="M2.66667 1.33333V14.6667L4.00001 14L5.33334 14.6667L6.66667 14L8 14.6667L9.33334 14L10.6667 14.6667L12 14L13.3333 14.6667V1.33333L12 1.99999L10.6667 1.33333L9.33334 1.99999L8 1.33333L6.66667 1.99999L5.33334 1.33333L4.00001 1.99999L2.66667 1.33333Z" stroke="#1F2937" stroke-linecap="round" stroke-linejoin="round"/>
<path d="M10.6667 5.33334H6.66666C6.31304 5.33334 5.9739 5.47382 5.72385 5.72387C5.4738 5.97392 5.33333 6.31305 5.33333 6.66668C5.33333 7.0203 5.4738 7.35944 5.72385 7.60949C5.9739 7.85953 6.31304 8.00001 6.66666 8.00001H9.33333C9.68695 8.00001 10.0261 8.14049 10.2761 8.39053C10.5262 8.64058 10.6667 8.97972 10.6667 9.33334C10.6667 9.68697 10.5262 10.0261 10.2761 10.2762C10.0261 10.5262 9.68695 10.6667 9.33333 10.6667H5.33333" stroke="#1F2937" stroke-linecap="round" stroke-linejoin="round"/>
<path d="M8 11.3333V4.66666" stroke="#1F2937" stroke-linecap="round" stroke-linejoin="round"/>
</svg>
