<svg width="16" height="16" viewBox="0 0 16 16" fill="none" xmlns="http://www.w3.org/2000/svg">
<path d="M10.6667 14V12.6667C10.6667 11.9594 10.3857 11.2811 9.88561 10.781C9.38552 10.281 8.70724 10 8 10H3.99999C3.29275 10 2.61447 10.281 2.11438 10.781C1.61428 11.2811 1.33333 11.9594 1.33333 12.6667V14" stroke="#1F2937" stroke-linecap="round" stroke-linejoin="round"/>
<path d="M6 7.33333C7.47275 7.33333 8.66666 6.13943 8.66666 4.66667C8.66666 3.19391 7.47275 2 6 2C4.52724 2 3.33333 3.19391 3.33333 4.66667C3.33333 6.13943 4.52724 7.33333 6 7.33333Z" stroke="black" stroke-linecap="round" stroke-linejoin="round"/>
<path d="M14.6667 14V12.6667C14.6662 12.0758 14.4696 11.5019 14.1076 11.0349C13.7456 10.5679 13.2388 10.2344 12.6667 10.0867" stroke="black" stroke-linecap="round" stroke-linejoin="round"/>
<path d="M10.6667 2.08667C11.2403 2.23354 11.7487 2.56714 12.1118 3.03488C12.4748 3.50262 12.6719 4.07789 12.6719 4.67C12.6719 5.26212 12.4748 5.83739 12.1118 6.30513C11.7487 6.77287 11.2403 7.10647 10.6667 7.25334" stroke="black" stroke-linecap="round" stroke-linejoin="round"/>
</svg>
