<svg width="16" height="16" viewBox="0 0 28 28" fill="none" xmlns="http://www.w3.org/2000/svg">
<path d="M26.8791 14.6134C26.8791 12.6753 25.8059 10.9947 24.2444 10.1974C24.4333 9.66378 24.5363 9.08725 24.5363 8.48005C24.5363 5.76912 22.4388 3.57584 19.8531 3.57584C19.2766 3.57584 18.7246 3.67888 18.2144 3.88251C17.4563 2.24245 15.8519 1.12005 13.9998 1.12005C12.1476 1.12005 10.5456 2.24491 9.7839 3.88005C9.27486 3.67765 8.72166 3.57339 8.14515 3.57339C5.55701 3.57339 3.46196 5.76912 3.46196 8.48005C3.46196 9.08603 3.56377 9.66256 3.75267 10.1974C2.19242 10.9947 1.11914 12.6728 1.11914 14.6134C1.11914 16.4473 2.07835 18.0456 3.50121 18.8895C3.47668 19.0981 3.46196 19.3066 3.46196 19.5201C3.46196 22.231 5.55701 24.4267 8.14515 24.4267C8.72166 24.4267 9.27363 24.3212 9.78267 24.1201C10.5432 25.7564 12.1451 26.8801 13.9985 26.8801C15.8532 26.8801 17.4551 25.7564 18.2144 24.1201C18.7234 24.32 19.2754 24.4243 19.8531 24.4243C22.4413 24.4243 24.5363 22.2285 24.5363 19.5176C24.5363 19.3042 24.5216 19.0956 24.4958 18.8883C25.9163 18.0456 26.8791 16.4473 26.8791 14.6146V14.6134Z" fill="#1302FF"/>
<path fill-rule="evenodd" clip-rule="evenodd" d="M11.9701 16.2139L17.9846 10.3044C18.5921 9.70854 19.5136 10.4021 18.7541 11.1835C18.7541 11.1835 12.9827 18.1772 12.6789 18.5777C12.5881 18.7191 12.4614 18.8357 12.3108 18.9166C12.1602 18.9975 11.9906 19.04 11.8182 19.04C11.6459 19.04 11.4763 18.9975 11.3257 18.9166C11.1751 18.8357 11.0484 18.7191 10.9576 18.5777L9.06413 15.452C8.96791 15.2824 8.93769 15.0852 8.97891 14.896C9.02013 14.7068 9.13008 14.5381 9.28894 14.4202C9.4478 14.3023 9.64509 14.2431 9.84524 14.2532C10.0454 14.2633 10.2352 14.342 10.3804 14.4752L11.9701 16.2139Z" fill="white"/>
</svg>
