<svg width="14" height="14" viewBox="0 0 14 14" fill="none" xmlns="http://www.w3.org/2000/svg">
<path d="M8.80865 0.761238C8.57313 0.520211 8.29181 0.328691 7.98121 0.197933C7.67062 0.067175 7.33702 -0.000183105 7.00003 -0.000183105C6.66303 -0.000183105 6.32944 0.067175 6.01884 0.197933C5.70825 0.328691 5.42693 0.520211 5.1914 0.761238L4.64715 1.31949L3.8684 1.30986C3.53131 1.30587 3.19682 1.36933 2.88461 1.49649C2.57239 1.62365 2.28876 1.81196 2.05038 2.05034C1.812 2.28872 1.62369 2.57235 1.49653 2.88457C1.36937 3.19678 1.30591 3.53127 1.3099 3.86836L1.31865 4.64711L0.762153 5.19136C0.521126 5.42689 0.329606 5.70821 0.198848 6.0188C0.0680905 6.3294 0.000732422 6.66299 0.000732422 6.99999C0.000732422 7.33698 0.0680905 7.67058 0.198848 7.98117C0.329606 8.29177 0.521126 8.57309 0.762153 8.80861L1.31953 9.35286L1.3099 10.1316C1.30591 10.4687 1.36937 10.8032 1.49653 11.1154C1.62369 11.4276 1.812 11.7113 2.05038 11.9496C2.28876 12.188 2.57239 12.3763 2.88461 12.5035C3.19682 12.6306 3.53131 12.6941 3.8684 12.6901L4.64715 12.6814L5.1914 13.2379C5.42693 13.4789 5.70825 13.6704 6.01884 13.8012C6.32944 13.9319 6.66303 13.9993 7.00003 13.9993C7.33702 13.9993 7.67062 13.9319 7.98121 13.8012C8.29181 13.6704 8.57313 13.4789 8.80865 13.2379L9.3529 12.6805L10.1317 12.6901C10.4687 12.6941 10.8032 12.6306 11.1154 12.5035C11.4277 12.3763 11.7113 12.188 11.9497 11.9496C12.1881 11.7113 12.3764 11.4276 12.5035 11.1154C12.6307 10.8032 12.6941 10.4687 12.6902 10.1316L12.6814 9.35286L13.2379 8.80861C13.4789 8.57309 13.6705 8.29177 13.8012 7.98117C13.932 7.67058 13.9993 7.33698 13.9993 6.99999C13.9993 6.66299 13.932 6.3294 13.8012 6.0188C13.6705 5.70821 13.4789 5.42689 13.2379 5.19136L12.6805 4.64711L12.6902 3.86836C12.6941 3.53127 12.6307 3.19678 12.5035 2.88457C12.3764 2.57235 12.1881 2.28872 11.9497 2.05034C11.7113 1.81196 11.4277 1.62365 11.1154 1.49649C10.8032 1.36933 10.4687 1.30587 10.1317 1.30986L9.3529 1.31861L8.80865 0.762113V0.761238ZM9.05978 5.99724L6.43478 8.62224C6.39414 8.66298 6.34586 8.69531 6.29271 8.71736C6.23956 8.73942 6.18257 8.75077 6.12503 8.75077C6.06748 8.75077 6.0105 8.73942 5.95735 8.71736C5.9042 8.69531 5.85592 8.66298 5.81528 8.62224L4.50278 7.30974C4.4621 7.26906 4.42983 7.22077 4.40782 7.16762C4.38581 7.11448 4.37448 7.05751 4.37448 6.99999C4.37448 6.94246 4.38581 6.8855 4.40782 6.83235C4.42983 6.77921 4.4621 6.73091 4.50278 6.69024C4.54346 6.64956 4.59175 6.61729 4.64489 6.59528C4.69804 6.57327 4.755 6.56193 4.81253 6.56193C4.87005 6.56193 4.92702 6.57327 4.98016 6.59528C5.03331 6.61729 5.0816 6.64956 5.12228 6.69024L6.12503 7.69386L8.44028 5.37774C8.52243 5.29559 8.63385 5.24943 8.75003 5.24943C8.86621 5.24943 8.97763 5.29559 9.05978 5.37774C9.14193 5.45989 9.18808 5.57131 9.18808 5.68749C9.18808 5.80367 9.14193 5.91509 9.05978 5.99724Z" fill="#2563EB"/>
</svg>
